<svg width="32" height="32" viewBox="0 0 32 32" fill="none" xmlns="http://www.w3.org/2000/svg">
<path d="M9.115 12.2698C9.21117 12.2912 9.37145 12.3018 9.59583 12.3018C9.68132 12.3018 9.76947 12.2912 9.86029 12.2698C9.95112 12.2484 10.0313 12.2271 10.1007 12.2057C10.1702 12.1844 10.2503 12.1443 10.3411 12.0856C10.4319 12.0269 10.5014 11.9815 10.5495 11.9494C10.5976 11.9174 10.6724 11.8587 10.7739 11.7732C10.8754 11.6878 10.9395 11.6344 10.9662 11.6131C10.9929 11.5917 11.0597 11.5303 11.1666 11.4289C11.2734 11.3274 11.3322 11.2713 11.3429 11.2607C11.5566 11.7305 11.8744 12.1443 12.2965 12.5021C12.7186 12.8598 13.1593 13.0387 13.6188 13.0387C14.2065 13.0387 14.7301 12.8171 15.1895 12.3739C15.649 11.9308 15.9428 11.4102 16.0711 10.8122C16.8404 11.6237 17.5509 12.0295 18.2027 12.0295C18.5981 12.0295 18.9934 11.9174 19.3888 11.6932C19.7842 11.4689 20.1261 11.1913 20.4146 10.8602C20.5535 11.5223 20.8927 12.0963 21.4323 12.5822C21.9719 13.068 22.5676 13.311 23.2194 13.311C23.4331 14.1653 23.54 15.0409 23.54 15.9379C23.54 17.5824 23.3263 19.0775 22.8989 20.423C22.4715 21.7685 21.8998 22.8657 21.1839 23.7147C20.468 24.5636 19.6666 25.215 18.7797 25.6689C17.8929 26.1227 16.9686 26.3496 16.0069 26.3496C15.0453 26.339 14.121 26.1067 13.2341 25.6529C12.3473 25.199 11.5459 24.5503 10.83 23.7067C10.1141 22.8631 9.53974 21.7685 9.10699 20.423C8.67424 19.0775 8.45786 17.5824 8.45786 15.9379C8.45786 14.7526 8.67691 13.5299 9.115 12.2698ZM11.8077 15.0569C11.4444 15.0569 11.1131 15.2038 10.8139 15.4974C10.5148 15.7911 10.3652 16.1248 10.3652 16.4986C10.3652 16.8616 10.4961 17.174 10.7578 17.4356C11.0196 17.6972 11.3322 17.8281 11.6955 17.8281C12.0801 17.8281 12.4194 17.6786 12.7132 17.3796C13.0071 17.0805 13.154 16.7495 13.154 16.3864V16.3224C12.8441 16.5146 12.6518 16.6107 12.577 16.6107C12.3633 16.6107 12.1816 16.5333 12.0321 16.3784C11.8825 16.2236 11.8077 16.0394 11.8077 15.8258C11.8077 15.6336 11.9573 15.404 12.2564 15.137C12.0962 15.0836 11.9466 15.0569 11.8077 15.0569ZM20.3344 15.0569C19.9711 15.0569 19.6346 15.2038 19.3247 15.4974C19.0148 15.7911 18.8599 16.1248 18.8599 16.4986C18.8599 16.8616 18.9961 17.174 19.2686 17.4356C19.5411 17.6972 19.8589 17.8281 20.2222 17.8281C20.5962 17.8281 20.9275 17.6786 21.216 17.3796C21.5045 17.0805 21.6487 16.7495 21.6487 16.3864V16.3224C21.3388 16.5146 21.1465 16.6107 21.0717 16.6107C20.858 16.6107 20.6817 16.5359 20.5428 16.3864C20.4039 16.2369 20.3344 16.0501 20.3344 15.8258C20.3344 15.6122 20.4733 15.3826 20.7512 15.137C20.5909 15.0836 20.452 15.0569 20.3344 15.0569ZM10.7659 3.49193C11.0757 2.73374 11.5112 2.08768 12.0721 1.55375C12.6331 1.01981 13.2448 0.627372 13.9073 0.376423C14.5698 0.125475 15.2697 0 16.0069 0C16.7442 0 17.4441 0.125475 18.1066 0.376423C18.7691 0.627372 19.3808 1.01981 19.9418 1.55375C20.5027 2.08768 20.9381 2.73374 21.248 3.49193C21.8891 3.23564 22.5383 3.09949 23.1954 3.08347C23.8525 3.06745 24.4669 3.16089 25.0386 3.36378C25.6102 3.56668 26.1498 3.84432 26.6574 4.19672C27.1649 4.54912 27.5923 4.97893 27.9396 5.48617C28.2869 5.99341 28.5594 6.53268 28.757 7.10399C28.9547 7.6753 29.0402 8.29199 29.0135 8.95407C28.9868 9.61615 28.8398 10.2676 28.5727 10.9083C29.7053 11.3568 30.5708 12.0803 31.1692 13.0787C31.7676 14.0772 32.0427 15.1397 31.9946 16.2663C31.9466 17.3929 31.602 18.41 30.9608 19.3177C31.1211 20.0225 31.1425 20.6739 31.025 21.2719C30.9395 21.8165 30.7525 22.2464 30.464 22.5614C30.1755 22.8764 29.7908 22.9965 29.31 22.9218C29.2779 22.9111 29.2272 22.8978 29.1577 22.8817C29.0883 22.8657 29.0375 22.8524 29.0055 22.8417C29.0909 23.6212 29.0081 24.3848 28.757 25.1323C28.5059 25.8798 28.1319 26.5285 27.6351 27.0785C27.1382 27.6284 26.5452 28.0903 25.856 28.464C25.1668 28.8378 24.4295 29.0327 23.6442 29.0487C22.8588 29.0647 22.0547 28.9179 21.232 28.6082C20.8473 29.4838 20.297 30.21 19.5811 30.7866C18.8652 31.3633 18.0906 31.729 17.2571 31.8839C16.4237 32.0387 15.5902 32.0387 14.7568 31.8839C13.9233 31.729 13.1513 31.3633 12.4408 30.7866C11.7302 30.21 11.1879 29.4838 10.8139 28.6082C9.99119 28.9179 9.18713 29.0647 8.40177 29.0487C7.61641 29.0327 6.8818 28.8378 6.19795 28.464C5.5141 28.0903 4.92107 27.6284 4.41887 27.0785C3.91666 26.5285 3.54001 25.8798 3.28891 25.1323C3.03781 24.3848 2.955 23.6212 3.04048 22.8417C3.00842 22.8524 2.96301 22.8657 2.90424 22.8817C2.84548 22.8978 2.80006 22.9111 2.76801 22.9218C2.27649 22.9965 1.87847 22.8764 1.57394 22.5614C1.26941 22.2464 1.06372 21.8165 0.956871 21.2719C0.850019 20.706 0.876732 20.0546 1.03701 19.3177C0.385214 18.41 0.0406168 17.3902 0.00321869 16.2583C-0.0341794 15.1263 0.25432 14.0665 0.868718 13.0787C1.48312 12.0909 2.35129 11.3675 3.47323 10.9083C3.2061 10.2676 3.05918 9.61615 3.03247 8.95407C3.00575 8.29199 3.08856 7.6753 3.2809 7.10399C3.47323 6.53268 3.74303 5.99341 4.0903 5.48617C4.43757 4.97893 4.8623 4.54912 5.36451 4.19672C5.86671 3.84432 6.40364 3.56668 6.9753 3.36378C7.54695 3.16089 8.16135 3.06745 8.81849 3.08347C9.47563 3.09949 10.1248 3.23564 10.7659 3.49193ZM24.4536 12.7503C24.4429 12.7183 24.5898 12.7744 24.8943 12.9185C25.1989 13.0627 25.5969 13.2896 26.0884 13.5993C26.5799 13.909 27.0928 14.2721 27.6271 14.6885C28.1613 15.105 28.6956 15.6096 29.2298 16.2022C29.7641 16.7949 30.1862 17.4009 30.496 18.0203C30.8059 17.4223 30.9635 16.7949 30.9689 16.1382C30.9742 15.4814 30.8406 14.8567 30.5682 14.264C30.2957 13.6714 29.8523 13.1294 29.2379 12.6382C28.6235 12.147 27.8889 11.7786 27.034 11.533C27.4721 10.7534 27.7366 9.97389 27.8274 9.19434C27.9182 8.4148 27.8621 7.71802 27.6591 7.10399C27.4561 6.48997 27.1249 5.95069 26.6654 5.48617C26.2059 5.02165 25.669 4.6826 25.0546 4.46903C24.4402 4.25545 23.7403 4.18871 22.955 4.2688C22.1696 4.34889 21.3816 4.60251 20.5909 5.02966C20.3558 4.17536 19.9925 3.44387 19.501 2.83519C19.0095 2.2265 18.4699 1.78067 17.8822 1.49768C17.2945 1.2147 16.6694 1.07321 16.0069 1.07321C15.3445 1.07321 14.7194 1.2147 14.1317 1.49768C13.544 1.78067 13.0044 2.2265 12.5129 2.83519C12.0214 3.44387 11.6581 4.17536 11.423 5.02966C10.6323 4.60251 9.84694 4.34889 9.06692 4.2688C8.2869 4.18871 7.58969 4.25545 6.9753 4.46903C6.3609 4.6826 5.82397 5.02165 5.36451 5.48617C4.90504 5.95069 4.5738 6.48997 4.37078 7.10399C4.16777 7.71802 4.11434 8.4148 4.21051 9.19434C4.30667 9.97389 4.5738 10.7534 5.01189 11.533C4.1464 11.7786 3.40645 12.147 2.79205 12.6382C2.17765 13.1294 1.73155 13.6714 1.45373 14.264C1.17592 14.8567 1.03968 15.4814 1.04502 16.1382C1.05037 16.7949 1.20797 17.4223 1.51784 18.0203C1.82771 17.4009 2.24978 16.7949 2.78404 16.2022C3.31829 15.6096 3.85255 15.105 4.38681 14.6885C4.92107 14.2721 5.43129 13.909 5.91746 13.5993C6.40364 13.2896 6.79899 13.06 7.10352 12.9105C7.40805 12.761 7.54962 12.7076 7.52825 12.7503C7.14359 13.5726 6.94324 14.5043 6.92721 15.5455C6.91118 16.5867 7.05276 17.4917 7.35195 18.2605C7.22373 18.4741 7.01804 18.936 6.73488 19.6461C6.45172 20.3562 6.13117 20.9275 5.77321 21.36C5.41526 21.7925 4.91573 22.1529 4.27462 22.4412C4.10365 23.2315 4.10633 23.9843 4.28263 24.6998C4.45894 25.4153 4.77949 26.0133 5.2443 26.4938C5.7091 26.9743 6.25672 27.3454 6.88714 27.6071C7.51757 27.8687 8.23348 27.9568 9.03486 27.8714C9.83625 27.7859 10.6323 27.5243 11.423 27.0865C11.6688 27.9301 12.0374 28.6509 12.5289 29.2489C13.0204 29.8469 13.5574 30.2847 14.1397 30.5624C14.722 30.84 15.3445 30.9789 16.0069 30.9789C16.6694 30.9789 17.2918 30.84 17.8742 30.5624C18.4565 30.2847 18.9934 29.8469 19.485 29.2489C19.9765 28.6509 20.3451 27.9301 20.5909 27.0865C21.3816 27.5243 22.1776 27.7859 22.979 27.8714C23.7804 27.9568 24.499 27.8687 25.1348 27.6071C25.7705 27.3454 26.3208 26.9743 26.7856 26.4938C27.2504 26.0133 27.571 25.4153 27.7473 24.6998C27.9236 23.9843 27.9263 23.2315 27.7553 22.4412C27.2531 22.217 26.8257 21.9233 26.4731 21.5603C26.1205 21.1972 25.8694 20.8581 25.7198 20.5431C25.5702 20.2281 25.3939 19.8303 25.1908 19.3498C24.9878 18.8692 24.8169 18.5062 24.678 18.2605C24.9665 17.4917 25.0974 16.5893 25.0706 15.5535C25.0439 14.5177 24.8382 13.5833 24.4536 12.7503Z" fill="#C3C1AC"/>
</svg>
