<svg width="186" height="89" viewBox="0 0 186 89" fill="none" xmlns="http://www.w3.org/2000/svg">
<path d="M5.26367 38.6211C5.2181 38.5299 5.19531 38.3704 5.19531 38.1426C5.19531 37.3678 5.49154 36.7298 6.08398 36.2285C6.67643 35.7272 7.33724 35.4766 8.06641 35.4766C9.2513 35.4766 10.3223 36.4792 11.2793 38.4844C12.2363 40.4896 13.1022 43.3379 13.877 47.0293L14.4238 49.7637V49.9004C14.4238 49.9004 14.5378 49.6725 14.7656 49.2168C14.9935 48.7155 15.2441 48.123 15.5176 47.4395C15.8366 46.7559 16.1556 46.0723 16.4746 45.3887C16.7936 44.7051 17.0443 44.1582 17.2266 43.748L18.7305 39.9199C18.8672 39.1908 19.0951 38.6667 19.4141 38.3477C19.4141 38.3021 19.4368 38.2565 19.4824 38.2109C19.5736 38.1198 19.6647 38.0059 19.7559 37.8691L20.166 37.6641C20.3027 37.6185 20.485 37.5501 20.7129 37.459C20.9863 37.3678 21.2598 37.3223 21.5332 37.3223C22.5358 37.3223 23.3561 37.8464 23.9941 38.8945L24.1309 39.373L24.1992 39.8516C24.5638 40.6719 24.974 41.5833 25.4297 42.5859C25.8854 43.543 26.3411 44.5 26.7969 45.457C27.2526 46.4141 27.7083 47.3255 28.1641 48.1914C28.6654 49.0573 29.1439 49.832 29.5996 50.5156C30.0098 49.7865 30.4427 48.9661 30.8984 48.0547C31.3542 47.0977 31.7871 46.1178 32.1973 45.1152C32.6074 44.0671 32.9492 43.0189 33.2227 41.9707C33.5417 40.877 33.7467 39.806 33.8379 38.7578C33.9746 37.9375 34.3392 37.3223 34.9316 36.9121C35.5241 36.4564 36.1165 36.2285 36.709 36.2285C37.4837 36.2285 38.1217 36.5247 38.623 37.1172C39.1699 37.7096 39.4434 38.4616 39.4434 39.373C39.3066 40.877 39.0104 42.3353 38.5547 43.748C38.1445 45.1152 37.6432 46.4596 37.0508 47.7812C36.5039 49.1029 35.8887 50.3789 35.2051 51.6094C34.5671 52.8398 33.9062 54.0703 33.2227 55.3008C33.0404 55.7565 32.8809 56.2806 32.7441 56.873C32.6074 57.4655 32.4023 58.0352 32.1289 58.582C31.8555 59.1289 31.4909 59.6074 31.0352 60.0176C30.625 60.3822 30.0553 60.5645 29.3262 60.5645C28.597 60.5645 28.0501 60.3366 27.6855 59.8809C27.321 59.4251 27.0475 58.7871 26.8652 57.9668C26.6374 56.8275 26.1133 55.5286 25.293 54.0703C24.5182 52.5664 23.6751 51.0169 22.7637 49.4219L21.875 48.0547L20.3711 50.9941C19.9154 51.86 19.528 52.6348 19.209 53.3184C18.9355 53.9564 18.6849 54.5488 18.457 55.0957C18.2747 55.6426 18.0924 56.1895 17.9102 56.7363C17.7734 57.2832 17.6139 57.8984 17.4316 58.582L17.0898 59.8125C16.8164 60.8607 16.4518 61.6582 15.9961 62.2051C15.5859 62.7975 14.9935 63.0938 14.2188 63.0938C13.5807 63.0938 12.9883 62.8431 12.4414 62.3418C11.8945 61.8405 11.5527 61.1113 11.416 60.1543V59.8809C10.8236 57.0553 10.2311 54.5944 9.63867 52.498C9.04622 50.4017 8.47656 48.2598 7.92969 46.0723C7.65625 45.0241 7.29167 43.7936 6.83594 42.3809C6.38021 40.9225 5.85612 39.6693 5.26367 38.6211Z" fill="black"/>
<path d="M52.2461 37.2842C51.6081 36.555 51.2891 35.8486 51.2891 35.165C51.2891 34.3903 51.5169 33.7295 51.9727 33.1826C52.474 32.6357 53.112 32.3623 53.8867 32.3623C54.4792 32.3623 55.0716 32.5446 55.6641 32.9092C56.2565 33.2282 56.8034 33.6383 57.3047 34.1396C57.806 34.5954 58.2389 35.0511 58.6035 35.5068C58.9681 35.9626 59.196 36.2816 59.2871 36.4639C59.3783 36.4183 59.5833 36.3955 59.9023 36.3955C60.7682 36.3955 61.5885 36.6234 62.3633 37.0791C63.1836 37.4893 63.9128 38.0361 64.5508 38.7197C65.2344 39.4033 65.8268 40.1325 66.3281 40.9072C66.8294 41.682 67.2624 42.4111 67.627 43.0947C67.9915 43.7783 68.3105 44.5303 68.584 45.3506C68.903 46.1253 69.1536 46.9229 69.3359 47.7432C69.5182 48.5635 69.6549 49.361 69.7461 50.1357C69.8372 50.9105 69.8828 51.6169 69.8828 52.2549C69.8828 54.1234 69.6322 55.8779 69.1309 57.5186C68.6751 59.1136 67.9004 60.5264 66.8066 61.7568C65.7585 62.9873 64.3685 63.9443 62.6367 64.6279C60.9049 65.3571 58.7858 65.7217 56.2793 65.7217C54.4564 65.7217 52.9525 65.1748 51.7676 64.0811C50.6283 62.9873 49.7396 61.7113 49.1016 60.2529C48.4635 58.749 48.0078 57.2223 47.7344 55.6729C47.5065 54.1234 47.3926 52.8701 47.3926 51.9131C47.3926 51.0016 47.5065 50.113 47.7344 49.2471C47.9622 48.3812 48.2585 47.5837 48.623 46.8545C48.9876 46.0798 49.3522 45.3962 49.7168 44.8037C50.127 44.2113 50.5143 43.71 50.8789 43.2998L54.2969 39.2666C54.2513 39.0843 54.0918 38.8792 53.8184 38.6514C53.5905 38.3779 53.3626 38.1273 53.1348 37.8994L52.2461 37.2842ZM59.1504 41.6592L58.877 42.0693C58.3301 42.7529 57.7148 43.4593 57.0312 44.1885C56.3932 44.9176 55.778 45.6696 55.1855 46.4443C54.5931 47.2191 54.0918 48.0622 53.6816 48.9736C53.2715 49.8851 53.0664 50.8877 53.0664 51.9814C53.0664 52.984 53.1348 53.9867 53.2715 54.9893C53.4538 55.9463 53.6816 56.8122 53.9551 57.5869C54.2741 58.3617 54.6615 58.9997 55.1172 59.501C55.5729 59.9567 56.097 60.1846 56.6895 60.1846C57.1908 60.1846 57.6921 60.139 58.1934 60.0479C58.7402 59.9567 59.2188 59.8656 59.6289 59.7744L62.0898 58.5439C62.2266 58.3617 62.4544 58.1338 62.7734 57.8604C63.0924 57.5413 63.3431 57.2223 63.5254 56.9033C63.9355 55.3994 64.1406 53.9183 64.1406 52.46C64.1406 50.5459 63.8216 48.723 63.1836 46.9912C62.5456 45.2139 61.5658 43.596 60.2441 42.1377L59.4238 41.7275H59.3555C59.2643 41.7275 59.196 41.7048 59.1504 41.6592Z" fill="black"/>
<path d="M83.2461 37.2842C82.6081 36.555 82.2891 35.8486 82.2891 35.165C82.2891 34.3903 82.5169 33.7295 82.9727 33.1826C83.474 32.6357 84.112 32.3623 84.8867 32.3623C85.4792 32.3623 86.0716 32.5446 86.6641 32.9092C87.2565 33.2282 87.8034 33.6383 88.3047 34.1396C88.806 34.5954 89.2389 35.0511 89.6035 35.5068C89.9681 35.9626 90.196 36.2816 90.2871 36.4639C90.3783 36.4183 90.5833 36.3955 90.9023 36.3955C91.7682 36.3955 92.5885 36.6234 93.3633 37.0791C94.1836 37.4893 94.9128 38.0361 95.5508 38.7197C96.2344 39.4033 96.8268 40.1325 97.3281 40.9072C97.8294 41.682 98.2624 42.4111 98.627 43.0947C98.9915 43.7783 99.3105 44.5303 99.584 45.3506C99.903 46.1253 100.154 46.9229 100.336 47.7432C100.518 48.5635 100.655 49.361 100.746 50.1357C100.837 50.9105 100.883 51.6169 100.883 52.2549C100.883 54.1234 100.632 55.8779 100.131 57.5186C99.6751 59.1136 98.9004 60.5264 97.8066 61.7568C96.7585 62.9873 95.3685 63.9443 93.6367 64.6279C91.9049 65.3571 89.7858 65.7217 87.2793 65.7217C85.4564 65.7217 83.9525 65.1748 82.7676 64.0811C81.6283 62.9873 80.7396 61.7113 80.1016 60.2529C79.4635 58.749 79.0078 57.2223 78.7344 55.6729C78.5065 54.1234 78.3926 52.8701 78.3926 51.9131C78.3926 51.0016 78.5065 50.113 78.7344 49.2471C78.9622 48.3812 79.2585 47.5837 79.623 46.8545C79.9876 46.0798 80.3522 45.3962 80.7168 44.8037C81.127 44.2113 81.5143 43.71 81.8789 43.2998L85.2969 39.2666C85.2513 39.0843 85.0918 38.8792 84.8184 38.6514C84.5905 38.3779 84.3626 38.1273 84.1348 37.8994L83.2461 37.2842ZM90.1504 41.6592L89.877 42.0693C89.3301 42.7529 88.7148 43.4593 88.0312 44.1885C87.3932 44.9176 86.778 45.6696 86.1855 46.4443C85.5931 47.2191 85.0918 48.0622 84.6816 48.9736C84.2715 49.8851 84.0664 50.8877 84.0664 51.9814C84.0664 52.984 84.1348 53.9867 84.2715 54.9893C84.4538 55.9463 84.6816 56.8122 84.9551 57.5869C85.2741 58.3617 85.6615 58.9997 86.1172 59.501C86.5729 59.9567 87.097 60.1846 87.6895 60.1846C88.1908 60.1846 88.6921 60.139 89.1934 60.0479C89.7402 59.9567 90.2188 59.8656 90.6289 59.7744L93.0898 58.5439C93.2266 58.3617 93.4544 58.1338 93.7734 57.8604C94.0924 57.5413 94.3431 57.2223 94.5254 56.9033C94.9355 55.3994 95.1406 53.9183 95.1406 52.46C95.1406 50.5459 94.8216 48.723 94.1836 46.9912C93.5456 45.2139 92.5658 43.596 91.2441 42.1377L90.4238 41.7275H90.3555C90.2643 41.7275 90.196 41.7048 90.1504 41.6592Z" fill="black"/>
<path d="M142.801 44.2168C143.029 43.1686 143.439 42.485 144.031 42.166C144.624 41.8014 145.307 41.6191 146.082 41.6191C146.72 41.7103 147.267 42.0521 147.723 42.6445C148.178 43.237 148.406 43.9661 148.406 44.832C148.315 46.6094 148.224 48.2044 148.133 49.6172C148.042 50.9844 147.973 52.3288 147.928 53.6504C147.882 54.972 147.837 56.362 147.791 57.8203C147.791 59.2331 147.791 60.8737 147.791 62.7422C147.791 63.5169 147.495 64.1549 146.902 64.6562C146.31 65.2031 145.695 65.4766 145.057 65.4766C144.419 65.4766 143.803 65.2487 143.211 64.793C142.618 64.3372 142.277 63.6309 142.186 62.6738C142.186 59.0736 142.254 55.9974 142.391 53.4453L142.801 44.2168ZM139.861 34.2363C139.314 34.0085 138.859 33.6667 138.494 33.2109C138.175 32.7096 138.016 32.2083 138.016 31.707C138.016 31.0234 138.243 30.3626 138.699 29.7246C139.201 29.0866 139.975 28.7676 141.023 28.7676C142.345 28.9954 143.507 29.3828 144.51 29.9297C145.512 30.4766 146.538 30.8184 147.586 30.9551C148.406 31.1829 148.999 31.5931 149.363 32.1855C149.728 32.7324 149.91 33.2793 149.91 33.8262C149.91 34.4642 149.66 35.0794 149.158 35.6719C148.702 36.2643 148.087 36.5605 147.312 36.5605C146.629 36.5605 145.968 36.4694 145.33 36.2871C144.738 36.1048 144.145 35.877 143.553 35.6035C142.96 35.3301 142.368 35.0794 141.775 34.8516C141.183 34.5781 140.545 34.373 139.861 34.2363Z" fill="black"/>
<path d="M114.246 24.7484C114.474 23.9737 114.816 23.3584 115.271 22.9027C115.773 22.447 116.342 22.2191 116.98 22.2191C118.348 22.2191 119.305 23.0394 119.852 24.6801C119.852 28.098 119.829 31.3337 119.783 34.3871C119.738 37.3949 119.715 40.2432 119.715 42.932C119.715 47.4893 119.988 52.434 120.535 57.766C120.945 57.9027 121.447 58.0622 122.039 58.2445C122.677 58.3812 123.27 58.6091 123.816 58.9281C124.409 59.2015 124.887 59.5661 125.252 60.0219C125.662 60.4776 125.867 61.0472 125.867 61.7308C125.867 62.4144 125.594 63.0069 125.047 63.5082C124.546 64.0551 123.93 64.3285 123.201 64.3285C122.7 64.3285 122.153 64.1918 121.561 63.9183C119.965 63.1436 118.735 62.6195 117.869 62.3461C117.049 62.0271 116.411 61.6853 115.955 61.3207C115.545 60.9105 115.271 60.2953 115.135 59.475C114.998 58.6091 114.861 57.2419 114.725 55.3734C114.406 53.6872 114.246 51.8415 114.246 49.8363C114.246 47.8311 114.246 45.8942 114.246 44.0258V24.7484Z" fill="black"/>
<path d="M166.998 44.5715C166.907 44.6171 166.861 44.6627 166.861 44.7083H166.998C167.317 44.7083 167.636 44.7994 167.955 44.9817C168.274 45.1184 168.548 45.3007 168.775 45.5286C169.003 45.7109 169.186 45.8931 169.322 46.0754C169.505 46.2122 169.618 46.2805 169.664 46.2805C170.348 46.5995 171.1 46.759 171.92 46.759C173.242 46.759 174.358 46.5767 175.27 46.2122C176.181 45.802 176.637 44.845 176.637 43.3411C176.363 42.4296 176.044 41.6777 175.68 41.0852C175.361 40.4928 174.814 39.9231 174.039 39.3762L172.604 38.761H171.646C171.282 38.761 170.803 38.8521 170.211 39.0344C169.618 39.2167 169.026 39.4674 168.434 39.7864C168.251 40.0598 168.069 40.47 167.887 41.0168C167.704 41.5181 167.545 42.0194 167.408 42.5208C167.271 43.0221 167.158 43.4778 167.066 43.8879C167.021 44.2981 166.998 44.526 166.998 44.5715ZM167.545 51.2024L167.34 50.4504C167.887 52.8658 169.208 54.8482 171.305 56.3977C171.76 56.7623 172.33 57.0813 173.014 57.3547C173.743 57.6282 174.449 57.8788 175.133 58.1067C175.862 58.3346 176.5 58.5168 177.047 58.6536C177.594 58.7447 177.936 58.7903 178.072 58.7903C178.528 58.3801 179.098 58.175 179.781 58.175C180.602 58.2662 181.24 58.608 181.695 59.2004C182.151 59.7473 182.379 60.3398 182.379 60.9778C182.379 61.9804 181.9 62.7779 180.943 63.3704C180.032 64.0084 179.052 64.3274 178.004 64.3274C175.771 64.3274 173.652 63.8717 171.646 62.9602C169.641 62.0943 167.887 60.9094 166.383 59.4055C164.879 57.9016 163.648 56.1698 162.691 54.2102C161.78 52.2506 161.279 50.177 161.188 47.9895C161.188 46.4856 161.301 44.8678 161.529 43.136C161.757 41.4042 162.236 39.8092 162.965 38.3508C163.694 36.8469 164.742 35.5937 166.109 34.5911C167.522 33.5885 169.391 33.0872 171.715 33.0872C173.173 33.0872 174.54 33.4062 175.816 34.0442C177.092 34.6366 178.186 35.4569 179.098 36.5051C180.055 37.5533 180.807 38.761 181.354 40.1282C181.9 41.4498 182.174 42.8398 182.174 44.2981C182.174 45.6197 181.923 46.7818 181.422 47.7844C180.966 48.787 180.328 49.6301 179.508 50.3137C178.688 50.9517 177.708 51.453 176.568 51.8176C175.475 52.1366 174.312 52.2961 173.082 52.2961C172.581 52.2961 172.011 52.2506 171.373 52.1594C170.781 52.0683 170.211 51.9771 169.664 51.886C169.117 51.7493 168.639 51.6353 168.229 51.5442C167.864 51.4075 167.636 51.2935 167.545 51.2024Z" fill="black"/>
</svg>
