<svg width="49" height="49" viewBox="0 0 49 49" fill="none" xmlns="http://www.w3.org/2000/svg">
<path d="M33.7814 28.5C34.4079 28.5 34.9361 28.72 35.366 29.16C35.7958 29.6 36.0071 30.1133 35.9998 30.7L27.2243 34L19.5745 31.8V21.9H21.7055L29.6504 24.859C30.2187 25.0863 30.5029 25.497 30.5029 26.091C30.5029 26.4357 30.379 26.7363 30.1313 26.993C29.8836 27.2497 29.5703 27.3853 29.1915 27.4H26.1315L24.219 26.663L23.8584 27.697L26.1315 28.5H33.7814ZM29.41 13.353C30.1823 12.451 31.1658 12 32.3607 12C33.3515 12 34.1894 12.3667 34.8742 13.1C35.559 13.8333 35.9233 14.6767 35.967 15.63C35.967 16.3853 35.6028 17.2873 34.8742 18.336C34.1456 19.3847 33.428 20.261 32.7213 20.965C32.0146 21.669 30.9108 22.714 29.41 24.1C27.8946 22.714 26.7799 21.669 26.0659 20.965C25.352 20.261 24.6343 19.3847 23.9131 18.336C23.1918 17.2873 22.8384 16.3853 22.853 15.63C22.853 14.6327 23.2064 13.7893 23.9131 13.1C24.6198 12.4107 25.4722 12.044 26.4703 12C27.636 12 28.6159 12.451 29.41 13.353ZM13 21.9H17.3888V34H13V21.9Z" fill="#B55A2E"/>
<circle cx="24.5" cy="24.5" r="23.5" stroke="#B55A2E" stroke-width="2"/>
</svg>
