<svg width="170" height="170" viewBox="0 0 170 170" fill="none" xmlns="http://www.w3.org/2000/svg">
<path d="M48.4234 65.1833C48.9343 65.2968 49.7858 65.3535 50.9779 65.3535C51.432 65.3535 51.9003 65.2968 52.3828 65.1833C52.8653 65.0699 53.291 64.9564 53.66 64.8429C54.029 64.7295 54.4547 64.5167 54.9372 64.2047C55.4197 63.8927 55.7887 63.6516 56.0442 63.4814C56.2996 63.3112 56.6969 62.9992 57.2362 62.5454C57.7755 62.0915 58.1161 61.8079 58.258 61.6944C58.3999 61.5809 58.7547 61.2547 59.3223 60.7158C59.89 60.1769 60.2022 59.879 60.2589 59.8223C61.3942 62.3184 63.083 64.5167 65.3252 66.4172C67.5674 68.3177 69.909 69.2679 72.3499 69.2679C75.472 69.2679 78.2535 68.0908 80.6943 65.7365C83.1352 63.3821 84.6963 60.6165 85.3775 57.4396C89.4645 61.7511 93.2394 63.9069 96.7021 63.9069C98.8024 63.9069 100.903 63.3112 103.003 62.1199C105.103 60.9285 106.92 59.4535 108.452 57.6949C109.19 61.2122 110.993 64.2615 113.859 66.8427C116.726 69.4239 119.891 70.7146 123.353 70.7146C124.489 75.253 125.056 79.9049 125.056 84.6703C125.056 93.4067 123.921 101.349 121.65 108.497C119.38 115.645 116.343 121.474 112.54 125.984C108.736 130.494 104.479 133.955 99.7674 136.366C95.0559 138.777 90.1457 139.982 85.0369 139.982C79.928 139.926 75.0179 138.692 70.3064 136.281C65.5949 133.87 61.3375 130.423 57.5342 125.942C53.731 121.46 50.6799 115.645 48.3809 108.497C46.0819 101.349 44.9324 93.4067 44.9324 84.6703C44.9324 78.3732 46.0961 71.8775 48.4234 65.1833ZM62.7282 79.99C60.7982 79.99 59.0385 80.77 57.4491 82.3301C55.8597 83.8902 55.065 85.663 55.065 87.6486C55.065 89.5774 55.7603 91.2368 57.1511 92.6267C58.5418 94.0166 60.2022 94.7115 62.1322 94.7115C64.1757 94.7115 65.978 93.9173 67.5391 92.3289C69.1001 90.7404 69.8806 88.9818 69.8806 87.0529V86.7126C68.2344 87.7337 67.2127 88.2443 66.8153 88.2443C65.68 88.2443 64.715 87.833 63.9203 87.0104C63.1256 86.1878 62.7282 85.2092 62.7282 84.0746C62.7282 83.0534 63.5229 81.8337 65.1124 80.4155C64.2609 80.1318 63.4662 79.99 62.7282 79.99ZM108.027 79.99C106.097 79.99 104.309 80.77 102.662 82.3301C101.016 83.8902 100.193 85.663 100.193 87.6486C100.193 89.5774 100.917 91.2368 102.364 92.6267C103.812 94.0166 105.501 94.7115 107.431 94.7115C109.417 94.7115 111.177 93.9173 112.71 92.3289C114.242 90.7404 115.009 88.9818 115.009 87.0529V86.7126C113.363 87.7337 112.341 88.2443 111.943 88.2443C110.808 88.2443 109.872 87.8472 109.134 87.0529C108.396 86.2587 108.027 85.2659 108.027 84.0746C108.027 82.94 108.765 81.7203 110.241 80.4155C109.389 80.1318 108.651 79.99 108.027 79.99ZM57.1936 18.5509C58.8398 14.523 61.153 11.0908 64.1332 8.25429C67.1133 5.41776 70.3631 3.33292 73.8825 1.99975C77.402 0.666583 81.1201 0 85.0369 0C88.9537 0 92.6718 0.666583 96.1912 1.99975C99.7106 3.33292 102.96 5.41776 105.941 8.25429C108.921 11.0908 111.234 14.523 112.88 18.5509C116.286 17.1893 119.734 16.466 123.226 16.3809C126.717 16.2958 129.981 16.7922 133.017 17.8701C136.054 18.948 138.921 20.423 141.617 22.2951C144.314 24.1672 146.584 26.4506 148.429 29.1453C150.274 31.84 151.722 34.7049 152.772 37.74C153.822 40.775 154.276 44.0512 154.134 47.5685C153.992 51.0858 153.212 54.5464 151.793 57.9502C157.81 60.3329 162.408 64.1764 165.586 69.4807C168.765 74.785 170.227 80.4297 169.971 86.4147C169.716 92.3998 167.885 97.8034 164.479 102.625C165.331 106.37 165.444 109.83 164.82 113.007C164.366 115.9 163.373 118.184 161.84 119.857C160.307 121.531 158.264 122.169 155.709 121.772C155.539 121.715 155.269 121.644 154.9 121.559C154.531 121.474 154.262 121.403 154.091 121.347C154.546 125.488 154.106 129.544 152.772 133.515C151.438 137.486 149.451 140.933 146.811 143.854C144.172 146.776 141.021 149.23 137.36 151.215C133.699 153.201 129.782 154.236 125.61 154.321C121.437 154.406 117.166 153.626 112.795 151.981C110.751 156.633 107.828 160.491 104.025 163.554C100.222 166.617 96.106 168.56 91.6784 169.383C87.2507 170.206 82.823 170.206 78.3954 169.383C73.9677 168.56 69.8664 166.617 66.0916 163.554C62.3167 160.491 59.4359 156.633 57.4491 151.981C53.0782 153.626 48.8066 154.406 44.6344 154.321C40.4622 154.236 36.5596 153.201 32.9266 151.215C29.2936 149.23 26.1432 146.776 23.4752 143.854C20.8073 140.933 18.8063 137.486 17.4723 133.515C16.1384 129.544 15.6984 125.488 16.1525 121.347C15.9823 121.403 15.741 121.474 15.4288 121.559C15.1166 121.644 14.8753 121.715 14.705 121.772C12.0939 122.169 9.97936 121.531 8.36155 119.857C6.74375 118.184 5.65103 115.9 5.08338 113.007C4.51573 110 4.65764 106.54 5.50911 102.625C2.04645 97.8034 0.215777 92.3856 0.0170993 86.3722C-0.181578 80.3587 1.35108 74.7282 4.61506 69.4807C7.87905 64.2331 12.4912 60.3896 18.4515 57.9502C17.0324 54.5464 16.2519 51.0858 16.11 47.5685C15.9681 44.0512 16.408 40.775 17.4298 37.74C18.4515 34.7049 19.8848 31.84 21.7297 29.1453C23.5746 26.4506 25.831 24.1672 28.4989 22.2951C31.1669 20.423 34.0193 18.948 37.0563 17.8701C40.0932 16.7922 43.3572 16.2958 46.8482 16.3809C50.3393 16.466 53.7877 17.1893 57.1936 18.5509ZM129.91 67.7362C129.853 67.566 130.633 67.8638 132.251 68.6297C133.869 69.3956 135.983 70.6011 138.595 72.2463C141.206 73.8915 143.931 75.8203 146.769 78.0328C149.607 80.2453 152.445 82.9258 155.284 86.0743C158.122 89.2229 160.364 92.4423 162.01 95.7327C163.656 92.5558 164.494 89.2229 164.522 85.7339C164.55 82.245 163.841 78.9263 162.393 75.7777C160.946 72.6292 158.59 69.7501 155.326 67.1405C152.062 64.5309 148.16 62.5737 143.618 61.2689C145.946 57.1276 147.351 52.9863 147.833 48.845C148.316 44.7036 148.018 41.002 146.939 37.74C145.861 34.478 144.101 31.6131 141.66 29.1453C139.219 26.6775 136.367 24.8763 133.103 23.7417C129.839 22.6071 126.121 22.2525 121.948 22.678C117.776 23.1035 113.59 24.4508 109.389 26.7201C108.14 22.1816 106.21 18.2956 103.599 15.0619C100.988 11.8283 98.1212 9.45981 94.9991 7.95645C91.8771 6.45309 88.5563 5.70141 85.0369 5.70141C81.5174 5.70141 78.1967 6.45309 75.0746 7.95645C71.9525 9.45981 69.0859 11.8283 66.4747 15.0619C63.8635 18.2956 61.9335 22.1816 60.6847 26.7201C56.4841 24.4508 52.3118 23.1035 48.168 22.678C44.0242 22.2525 40.3202 22.6071 37.0563 23.7417C33.7923 24.8763 30.9398 26.6775 28.4989 29.1453C26.058 31.6131 24.2983 34.478 23.2198 37.74C22.1413 41.002 21.8574 44.7036 22.3683 48.845C22.8792 52.9863 24.2983 57.1276 26.6257 61.2689C22.0277 62.5737 18.0968 64.5309 14.8328 67.1405C11.5688 69.7501 9.19884 72.6292 7.72295 75.7777C6.24706 78.9263 5.5233 82.245 5.55169 85.7339C5.58007 89.2229 6.41735 92.5558 8.06354 95.7327C9.70972 92.4423 11.9519 89.2229 14.7902 86.0743C17.6284 82.9258 20.4667 80.2453 23.3049 78.0328C26.1432 75.8203 28.8537 73.8915 31.4365 72.2463C34.0193 70.6011 36.1196 69.3814 37.7374 68.5872C39.3552 67.7929 40.1074 67.5093 39.9938 67.7362C37.9503 72.1045 36.886 77.0542 36.8008 82.5854C36.7157 88.1166 37.4678 92.9245 39.0572 97.0091C38.376 98.1437 37.2833 100.597 35.779 104.37C34.2748 108.142 32.5718 111.178 30.6702 113.475C28.7686 115.773 26.1148 117.687 22.7089 119.219C21.8007 123.417 21.8149 127.417 22.7515 131.218C23.6881 135.019 25.3911 138.195 27.8603 140.748C30.3296 143.301 33.2388 145.273 36.5879 146.662C39.9371 148.052 43.7403 148.52 47.9977 148.067C52.2551 147.613 56.4841 146.223 60.6847 143.897C61.9903 148.379 63.9487 152.208 66.5599 155.385C69.1711 158.562 72.0235 160.888 75.1172 162.363C78.2109 163.838 81.5174 164.575 85.0369 164.575C88.5563 164.575 91.8629 163.838 94.9566 162.363C98.0502 160.888 100.903 158.562 103.514 155.385C106.125 152.208 108.083 148.379 109.389 143.897C113.59 146.223 117.819 147.613 122.076 148.067C126.333 148.52 130.151 148.052 133.528 146.662C136.906 145.273 139.829 143.301 142.299 140.748C144.768 138.195 146.471 135.019 147.407 131.218C148.344 127.417 148.358 123.417 147.45 119.219C144.782 118.028 142.511 116.468 140.638 114.539C138.765 112.61 137.431 110.809 136.636 109.135C135.842 107.462 134.905 105.349 133.826 102.796C132.748 100.243 131.84 98.3139 131.102 97.0091C132.634 92.9245 133.33 88.1308 133.188 82.628C133.046 77.1251 131.953 72.1612 129.91 67.7362Z" fill="#C3C1AC"/>
</svg>
