<svg width="49" height="49" viewBox="0 0 49 49" fill="none" xmlns="http://www.w3.org/2000/svg">
<circle cx="24.5" cy="24.5" r="23.5" stroke="#B55A2E" stroke-width="2"/>
<path d="M29.485 35H19.515C19.1844 35 18.8674 34.8712 18.6337 34.642C18.4 34.4128 18.2687 34.1019 18.2687 33.7778V24.0856L16.6486 25.3078C16.5333 25.4211 16.3963 25.511 16.2456 25.5723C16.0948 25.6336 15.9332 25.6652 15.77 25.6652C15.6067 25.6652 15.4451 25.6336 15.2944 25.5723C15.1436 25.511 15.0067 25.4211 14.8914 25.3078L11.3645 21.91C11.2489 21.7969 11.1573 21.6626 11.0947 21.5148C11.0322 21.3669 11 21.2084 11 21.0483C11 20.8883 11.0322 20.7298 11.0947 20.5819C11.1573 20.434 11.2489 20.2997 11.3645 20.1867L18.6924 13H20.7612C20.7612 14.3444 22.4312 15.4444 24.5 15.4444C26.5687 15.4444 28.2387 14.3444 28.2387 13H30.3075L37.6355 20.1867C38.1215 20.6633 38.1215 21.4333 37.6355 21.91L34.1086 25.3689C33.6225 25.8333 32.8374 25.8333 32.3514 25.3689L30.7312 24.1467V33.7778C30.7312 34.1019 30.5999 34.4128 30.3662 34.642C30.1325 34.8712 29.8155 35 29.485 35Z" fill="#B55A2E"/>
</svg>
