<svg width="49" height="49" viewBox="0 0 49 49" fill="none" xmlns="http://www.w3.org/2000/svg">
<path d="M32.3333 24C31.8029 24 31.2942 23.7893 30.9191 23.4142C30.544 23.0391 30.3333 22.5304 30.3333 22C30.3333 21.4696 30.544 20.9609 30.9191 20.5858C31.2942 20.2107 31.8029 20 32.3333 20C32.8638 20 33.3725 20.2107 33.7475 20.5858C34.1226 20.9609 34.3333 21.4696 34.3333 22C34.3333 22.5304 34.1226 23.0391 33.7475 23.4142C33.3725 23.7893 32.8638 24 32.3333 24ZM28.3333 18.6667C27.8029 18.6667 27.2942 18.456 26.9191 18.0809C26.544 17.7058 26.3333 17.1971 26.3333 16.6667C26.3333 16.1362 26.544 15.6275 26.9191 15.2525C27.2942 14.8774 27.8029 14.6667 28.3333 14.6667C28.8638 14.6667 29.3725 14.8774 29.7475 15.2525C30.1226 15.6275 30.3333 16.1362 30.3333 16.6667C30.3333 17.1971 30.1226 17.7058 29.7475 18.0809C29.3725 18.456 28.8638 18.6667 28.3333 18.6667ZM21.6667 18.6667C21.1362 18.6667 20.6275 18.456 20.2525 18.0809C19.8774 17.7058 19.6667 17.1971 19.6667 16.6667C19.6667 16.1362 19.8774 15.6275 20.2525 15.2525C20.6275 14.8774 21.1362 14.6667 21.6667 14.6667C22.1971 14.6667 22.7058 14.8774 23.0809 15.2525C23.456 15.6275 23.6667 16.1362 23.6667 16.6667C23.6667 17.1971 23.456 17.7058 23.0809 18.0809C22.7058 18.456 22.1971 18.6667 21.6667 18.6667ZM17.6667 24C17.1362 24 16.6275 23.7893 16.2525 23.4142C15.8774 23.0391 15.6667 22.5304 15.6667 22C15.6667 21.4696 15.8774 20.9609 16.2525 20.5858C16.6275 20.2107 17.1362 20 17.6667 20C18.1971 20 18.7058 20.2107 19.0809 20.5858C19.456 20.9609 19.6667 21.4696 19.6667 22C19.6667 22.5304 19.456 23.0391 19.0809 23.4142C18.7058 23.7893 18.1971 24 17.6667 24ZM25 12C21.8174 12 18.7652 13.2643 16.5147 15.5147C14.2643 17.7652 13 20.8174 13 24C13 27.1826 14.2643 30.2348 16.5147 32.4853C18.7652 34.7357 21.8174 36 25 36C25.5304 36 26.0391 35.7893 26.4142 35.4142C26.7893 35.0391 27 34.5304 27 34C27 33.48 26.8 33.0133 26.48 32.6667C26.1733 32.3067 25.9733 31.84 25.9733 31.3333C25.9733 30.8029 26.184 30.2942 26.5591 29.9191C26.9342 29.544 27.4429 29.3333 27.9733 29.3333H30.3333C32.1014 29.3333 33.7971 28.631 35.0474 27.3807C36.2976 26.1305 37 24.4348 37 22.6667C37 16.7733 31.6267 12 25 12Z" fill="#B55A2E"/>
<circle cx="24.5" cy="24.5" r="23.5" stroke="#B55A2E" stroke-width="2"/>
</svg>
